<svg xmlns="http://www.w3.org/2000/svg" xmlns:xlink="http://www.w3.org/1999/xlink" viewBox="0 0 1864 328" xmlns:v="https://vecta.io/nano"><defs><path id="A" d="M0 0h1864v328H0z"/></defs><clipPath id="B"><use xlink:href="#A"/></clipPath><g clip-path="url(#B)"><path d="M1371.8 19l-38.6 221h61.1l10.5-60.7c16.5 6.8 22.1 20.2 31.1 42.7 3.4 8.2 13.1 21.7 36.7 21.7 14.2 0 28.9-1.9 40.1-5.2l6.4-35.6c-4.1 1.5-7.9 2.2-11.6 2.2-12.1 0-15.4-7.1-18.3-13.3l-.2-.5c-.1-.2-.2-.3-.2-.5-5.2-10.9-9.7-19.5-19.5-25.5 33.7-13.5 61.4-36.7 64.1-75.3h-62.9c-1.9 28.5-20.2 43.1-58.1 46.8l24-136-64.6 18.2zM1 176.3c4.1-24 22.1-45 46.1-54.3-14.6-8.6-25.5-24-21-48.3 6.4-34.5 38.6-62.2 102.3-62.2 34.8 0 52.4 2.1 79.1 5.4l1.9.2-9 50.9-10.7-1.2c-22.6-2.5-40.6-4.5-70.3-4.5-21.3 0-32.2 6-34.1 17.3-1.9 11.6 6.4 18 27.7 18h71.5l-9 50.9h-71.9c-22.1 0-37.8 6-40.8 21.7-3 16.5 10.9 22.5 33 22.5 38.6 0 63.3-2.2 88.8-5.6l-9 50.9-15.8 1.5h0 0 0c-18.7 1.9-41.2 4.1-72.9 4.1-67.2.1-92.3-30.2-85.9-67.3zm347.6-75.7c-11.6-9-27.7-14.2-47.6-14.2-55.4 0-89.9 31.8-98.1 78.7-8.2 46.8 15 78.6 70.4 78.6 18.4 0 35.2-4.5 49.1-12.4 6.8 7.9 18.7 12.4 34.5 12.4 13.9 0 28.1-3 42.3-8.2l6.4-36.3c-4.1 1.5-7.8 2.3-11.6 2.3-10.1 0-13.9-4.5-12-15.4l17.6-99.6-51 14.1zm-85.1 64.5c3.4-19.1 15.7-33.7 40.8-33.7 11.6 0 19.5 3.4 25.1 8.6l-9 51c-7.5 4.9-17.6 7.9-29.2 7.9-25-.1-31-14.7-27.7-33.8zm166.6-30c-6.2 33.9 24.4 41.5 52.9 48.6h0 0 0 0 0 0 0 0 0 0 0l7.8 2c12 3 15.7 5.6 15 10.5-.8 4.5-6 8.2-19.5 8.2-18.3 0-43.1-6-63.7-12.7l-6.7 39.7c17.2 5.6 40.4 12.4 68.9 12.4 48.3 0 81.7-16.1 87.6-50.2 5.6-31.8-27.3-42-62.6-49.8-9.7-2.2-14.6-4.9-13.5-9.4 1.1-5.2 6-8.2 19.1-8.2 13.5 0 34.4 3.4 53.2 7.9l7.1-39c-13.9-3.4-36-8.6-60.7-8.6-42.5-.1-79.6 19.4-84.9 48.6zm242.8 26.2l46.8-71.2h65.9L674.7 252c-36.7 53.6-72.7 75.7-110.9 75.7-25.8 0-43.8-6.4-57.3-17.2l16.1-40.1c7.9 6.7 22.9 12 33.3 12 29.6 0 47.6-8.6 76.4-60.3l-43.7-132h61.1l23.2 71.2zM824.4 15.2L785 240h108.3c59.5 0 94.4-28.8 100.8-64 4.5-24.3-6.4-46.5-34.8-56.9 18.7-10.9 28.8-27.3 32.2-44.6 6-32.6-16.5-59.2-72.7-59.2h-94.4zm83.5 46.9h-31.1l-6.7 37.8h30.7c16.5 0 26.2-7.1 28.5-19.1 2.2-11.6-4.9-18.7-21.4-18.7zm-45.7 83.5h45.3c20.2 0 29.2 9.7 26.2 23.6-3 14.2-15.4 23.6-35.6 23.6h-44.2l8.3-47.2zM997.8 240l24.7-141.2 63.7-18-4.1 24.4c19.5-12 49.1-20.6 62.2-20.6l-9.3 54.7c-15.4 0-43.5 3.4-61.1 12.3l-15.4 88.4h-60.7zm142.8-74.9c-8.2 46.8 19.5 78.6 80.6 78.6 61 0 100-31.8 108.2-78.6s-19.5-78.7-80.6-78.7c-61 0-100 31.8-108.2 78.7zm100.8-33.7c-25.1 0-36.3 15-40.1 33.7-3.7 19.1 1.9 33.7 27 33.7s36.7-14.6 40.4-33.7c3.8-18.8-2.2-33.7-27.3-33.7zm376.5 112.3c-62.6 0-92.9-32.6-84.7-78.6 9-50.6 53.2-78.7 115.4-78.7 46.8 0 71.6 21.4 71.6 43.5 0 25.5-28.5 50.9-88.4 50.9-16.1 0-29.6-2.2-39.7-4.9-1.9 22.9 15 28.8 43.1 28.8 25.9 0 41.6-5.2 65.6-15l-6.3 37.8c-20.5 8.7-39.6 16.2-76.6 16.2zm-16.6-99.2c7.1-13.5 22.5-21.4 40.5-21.4 14.2 0 22.8 5.6 22.8 12.4 0 7.1-7.5 12.7-27 12.7-14.9 0-26.9-1.5-36.3-3.7zm116.3 95.5l24.7-141.2 63.7-18-4.1 24.4c19.5-12 49.1-20.6 62.2-20.6l-9.3 54.7c-15.4 0-43.5 3.4-61.1 12.3l-15.3 88.4h-60.8z" fill-rule="evenodd" fill="#3657ff"/></g></svg>